<svg width="375" height="232" viewBox="0 0 375 232" fill="none" xmlns="http://www.w3.org/2000/svg">
<path d="M346.847 217.574L334.847 229.574" stroke="#24EF7F" stroke-width="3" stroke-miterlimit="10" stroke-linecap="round" stroke-linejoin="round"/>
<path d="M346.847 229.574L334.847 217.574" stroke="#24EF7F" stroke-width="2" stroke-miterlimit="10" stroke-linecap="round" stroke-linejoin="round"/>
<path d="M11.6309 132.999L-0.36914 132.999" stroke="#24EF7F" stroke-width="2" stroke-miterlimit="10" stroke-linecap="round" stroke-linejoin="round"/>
<path d="M5.6322 139.007L5.6322 127.007" stroke="#24EF7F" stroke-width="2" stroke-miterlimit="10" stroke-linecap="round" stroke-linejoin="round"/>
<path d="M247.096 24.12L235.096 24.12" stroke="#24EF7F" stroke-width="2" stroke-miterlimit="10" stroke-linecap="round" stroke-linejoin="round"/>
<path d="M241.282 30.7499L241.282 18.7499" stroke="#24EF7F" stroke-width="2" stroke-miterlimit="10" stroke-linecap="round" stroke-linejoin="round"/>
<path d="M353.067 15C349.209 15 346.067 11.8709 346.067 8C346.067 4.14258 349.196 1 353.067 1C356.924 1 360.067 4.1291 360.067 8C360.053 11.8709 356.924 15 353.067 15Z" stroke="#24EF7F" stroke-width="2" stroke-miterlimit="10" stroke-linecap="round" stroke-linejoin="round"/>
<path d="M62.0167 229.375C58.1592 229.375 55.0167 226.246 55.0167 222.375C55.0167 218.518 58.1458 215.375 62.0167 215.375C65.8741 215.375 69.0167 218.504 69.0167 222.375C69.0032 226.246 65.8741 229.375 62.0167 229.375Z" stroke="#24EF7F" stroke-width="2" stroke-miterlimit="10" stroke-linecap="round" stroke-linejoin="round"/>
<path d="M71.144 4.4712C71.144 5.68587 72.2902 6.67055 73.704 6.67056C75.1178 6.67056 76.264 5.68587 76.264 4.4712C76.264 3.25653 75.1178 2.27185 73.704 2.27185C72.2902 2.27185 71.144 3.25653 71.144 4.4712Z" fill="#24EF7F"/>
<path d="M71.1441 19.8198C71.1441 21.0345 72.2902 22.0192 73.7041 22.0192C75.1179 22.0192 76.264 21.0345 76.264 19.8198C76.264 18.6052 75.1179 17.6205 73.7041 17.6205C72.2902 17.6205 71.1441 18.6052 71.1441 19.8198Z" fill="#24EF7F"/>
<path d="M71.1441 35.1829C71.1441 36.3975 72.2902 37.3822 73.7041 37.3822C75.1179 37.3822 76.264 36.3975 76.264 35.1829C76.264 33.9682 75.1179 32.9835 73.7041 32.9835C72.2902 32.9835 71.1441 33.9682 71.1441 35.1829Z" fill="#24EF7F"/>
<path d="M71.1441 50.5328C71.1441 51.7475 72.2902 52.7322 73.7041 52.7322C75.1179 52.7322 76.264 51.7475 76.264 50.5328C76.264 49.3182 75.1179 48.3335 73.7041 48.3335C72.2902 48.3335 71.1441 49.3182 71.1441 50.5328Z" fill="#24EF7F"/>
<path d="M71.1441 65.8947C71.1441 67.1093 72.2902 68.094 73.7041 68.094C75.1179 68.094 76.264 67.1093 76.264 65.8947C76.264 64.68 75.1179 63.6953 73.7041 63.6953C72.2902 63.6953 71.1441 64.68 71.1441 65.8947Z" fill="#24EF7F"/>
<path d="M53.2756 4.47108C53.2756 5.68575 54.4217 6.67043 55.8355 6.67043C57.2494 6.67043 58.3955 5.68575 58.3955 4.47108C58.3955 3.25641 57.2494 2.27173 55.8355 2.27173C54.4217 2.27173 53.2756 3.25641 53.2756 4.47108Z" fill="#24EF7F"/>
<path d="M53.2756 19.8203C53.2756 21.035 54.4217 22.0197 55.8355 22.0197C57.2494 22.0197 58.3955 21.035 58.3955 19.8203C58.3955 18.6057 57.2494 17.621 55.8355 17.621C54.4217 17.621 53.2756 18.6057 53.2756 19.8203Z" fill="#24EF7F"/>
<path d="M53.2756 35.1827C53.2756 36.3974 54.4217 37.3821 55.8355 37.3821C57.2494 37.3821 58.3955 36.3974 58.3955 35.1827C58.3955 33.9681 57.2494 32.9834 55.8355 32.9834C54.4217 32.9834 53.2756 33.9681 53.2756 35.1827Z" fill="#24EF7F"/>
<path d="M53.2756 50.5326C53.2756 51.7473 54.4217 52.7319 55.8355 52.7319C57.2494 52.7319 58.3955 51.7473 58.3955 50.5326C58.3955 49.3179 57.2494 48.3333 55.8355 48.3333C54.4217 48.3333 53.2756 49.3179 53.2756 50.5326Z" fill="#24EF7F"/>
<path d="M53.2756 65.8944C53.2756 67.1091 54.4217 68.0938 55.8355 68.0938C57.2494 68.0938 58.3955 67.1091 58.3955 65.8944C58.3955 64.6797 57.2494 63.6951 55.8355 63.6951C54.4217 63.6951 53.2756 64.6797 53.2756 65.8944Z" fill="#24EF7F"/>
<path d="M35.3937 4.47108C35.3937 5.68575 36.5399 6.67043 37.9537 6.67043C39.3675 6.67043 40.5137 5.68575 40.5137 4.47108C40.5137 3.25641 39.3675 2.27173 37.9537 2.27173C36.5399 2.27173 35.3937 3.25641 35.3937 4.47108Z" fill="#24EF7F"/>
<path d="M35.3937 19.8203C35.3937 21.035 36.5399 22.0197 37.9537 22.0197C39.3675 22.0197 40.5137 21.035 40.5137 19.8203C40.5137 18.6057 39.3675 17.621 37.9537 17.621C36.5399 17.621 35.3937 18.6057 35.3937 19.8203Z" fill="#24EF7F"/>
<path d="M35.3937 35.1827C35.3937 36.3974 36.5399 37.3821 37.9537 37.3821C39.3675 37.3821 40.5137 36.3974 40.5137 35.1827C40.5137 33.9681 39.3675 32.9834 37.9537 32.9834C36.5399 32.9834 35.3937 33.9681 35.3937 35.1827Z" fill="#24EF7F"/>
<path d="M35.3937 50.5326C35.3937 51.7473 36.5399 52.7319 37.9537 52.7319C39.3675 52.7319 40.5137 51.7473 40.5137 50.5326C40.5137 49.3179 39.3675 48.3333 37.9537 48.3333C36.5399 48.3333 35.3937 49.3179 35.3937 50.5326Z" fill="#24EF7F"/>
<path d="M35.3937 65.8944C35.3937 67.1091 36.5399 68.0938 37.9537 68.0938C39.3675 68.0938 40.5137 67.1091 40.5137 65.8944C40.5137 64.6797 39.3675 63.6951 37.9537 63.6951C36.5399 63.6951 35.3937 64.6797 35.3937 65.8944Z" fill="#24EF7F"/>
<path d="M17.5254 4.47108C17.5254 5.68575 18.6716 6.67043 20.0854 6.67043C21.4992 6.67043 22.6454 5.68575 22.6454 4.47108C22.6454 3.25641 21.4992 2.27173 20.0854 2.27173C18.6716 2.27173 17.5254 3.25641 17.5254 4.47108Z" fill="#24EF7F"/>
<path d="M17.5254 19.8203C17.5254 21.035 18.6716 22.0197 20.0854 22.0197C21.4992 22.0197 22.6454 21.035 22.6454 19.8203C22.6454 18.6057 21.4992 17.621 20.0854 17.621C18.6716 17.621 17.5254 18.6057 17.5254 19.8203Z" fill="#24EF7F"/>
<path d="M17.5254 35.1827C17.5254 36.3974 18.6716 37.3821 20.0854 37.3821C21.4992 37.3821 22.6454 36.3974 22.6454 35.1827C22.6454 33.9681 21.4992 32.9834 20.0854 32.9834C18.6716 32.9834 17.5254 33.9681 17.5254 35.1827Z" fill="#24EF7F"/>
<path d="M17.5254 50.5326C17.5254 51.7473 18.6716 52.7319 20.0854 52.7319C21.4992 52.7319 22.6454 51.7473 22.6454 50.5326C22.6454 49.3179 21.4992 48.3333 20.0854 48.3333C18.6716 48.3333 17.5254 49.3179 17.5254 50.5326Z" fill="#24EF7F"/>
<path d="M17.5254 65.8944C17.5254 67.1091 18.6716 68.0938 20.0854 68.0938C21.4992 68.0938 22.6454 67.1091 22.6454 65.8944C22.6454 64.6797 21.4992 63.6951 20.0854 63.6951C18.6716 63.6951 17.5254 64.6797 17.5254 65.8944Z" fill="#24EF7F"/>
<path d="M369.88 134.09C369.88 135.304 371.026 136.289 372.44 136.289C373.854 136.289 375 135.304 375 134.09C375 132.875 373.854 131.89 372.44 131.89C371.026 131.89 369.88 132.875 369.88 134.09Z" fill="#24EF7F"/>
<path d="M369.88 149.438C369.88 150.653 371.026 151.638 372.44 151.638C373.854 151.638 375 150.653 375 149.438C375 148.224 373.854 147.239 372.44 147.239C371.026 147.239 369.88 148.224 369.88 149.438Z" fill="#24EF7F"/>
<path d="M369.88 164.8C369.88 166.015 371.026 167 372.44 167C373.854 167 375 166.015 375 164.8C375 163.586 373.854 162.601 372.44 162.601C371.026 162.601 369.88 163.586 369.88 164.8Z" fill="#24EF7F"/>
<path d="M351.998 134.089C351.998 135.303 353.144 136.288 354.558 136.288C355.972 136.288 357.118 135.303 357.118 134.089C357.118 132.874 355.972 131.889 354.558 131.889C353.144 131.889 351.998 132.874 351.998 134.089Z" fill="#24EF7F"/>
<path d="M351.998 149.438C351.998 150.653 353.144 151.638 354.558 151.638C355.972 151.638 357.118 150.653 357.118 149.438C357.118 148.224 355.972 147.239 354.558 147.239C353.144 147.239 351.998 148.224 351.998 149.438Z" fill="#24EF7F"/>
<path d="M351.998 164.801C351.998 166.015 353.144 167 354.558 167C355.972 167 357.118 166.015 357.118 164.801C357.118 163.586 355.972 162.601 354.558 162.601C353.144 162.601 351.998 163.586 351.998 164.801Z" fill="#24EF7F"/>
</svg>
